name GIL12_static.mot
datacolumns 141
datarows 4
range 1.45000005 1.47500002
endheader

                time	           pelvis_tx	           pelvis_ty	           pelvis_tz	         pelvis_tilt	         pelvis_list	     pelvis_rotation	       hip_flexion_r	     hip_adduction_r	      hip_rotation_r	        knee_angle_r	       ankle_angle_r	    subtalar_angle_r	         mtp_angle_r	       hip_flexion_l	     hip_adduction_l	      hip_rotation_l	        knee_angle_l	       ankle_angle_l	    subtalar_angle_l	         mtp_angle_l	    lumbar_extension	      lumbar_bending	     lumbar_rotation	    ground_marker_px	    ground_marker_py	    ground_marker_pz	    ground_marker_px	    ground_marker_py	    ground_marker_pz	    ground_marker_px	    ground_marker_py	    ground_marker_pz	    ground_marker_px	    ground_marker_py	    ground_marker_pz	    ground_marker_px	    ground_marker_py	    ground_marker_pz	    ground_marker_px	    ground_marker_py	    ground_marker_pz	    ground_marker_px	    ground_marker_py	    ground_marker_pz	    ground_marker_px	    ground_marker_py	    ground_marker_pz	    ground_marker_px	    ground_marker_py	    ground_marker_pz	    ground_marker_px	    ground_marker_py	    ground_marker_pz	    ground_marker_px	    ground_marker_py	    ground_marker_pz	    ground_marker_px	    ground_marker_py	    ground_marker_pz	    ground_marker_px	    ground_marker_py	    ground_marker_pz	    ground_marker_px	    ground_marker_py	    ground_marker_pz	    ground_marker_px	    ground_marker_py	    ground_marker_pz	    ground_marker_px	    ground_marker_py	    ground_marker_pz	    ground_marker_px	    ground_marker_py	    ground_marker_pz	    ground_marker_px	    ground_marker_py	    ground_marker_pz	    ground_marker_px	    ground_marker_py	    ground_marker_pz	    ground_marker_px	    ground_marker_py	    ground_marker_pz	    ground_marker_px	    ground_marker_py	    ground_marker_pz	    ground_marker_px	    ground_marker_py	    ground_marker_pz	    ground_marker_px	    ground_marker_py	    ground_marker_pz	    ground_marker_px	    ground_marker_py	    ground_marker_pz	    ground_marker_px	    ground_marker_py	    ground_marker_pz	    ground_marker_px	    ground_marker_py	    ground_marker_pz	    ground_marker_px	    ground_marker_py	    ground_marker_pz	    ground_marker_px	    ground_marker_py	    ground_marker_pz	    ground_marker_px	    ground_marker_py	    ground_marker_pz	    ground_marker_px	    ground_marker_py	    ground_marker_pz	    ground_marker_px	    ground_marker_py	    ground_marker_pz	    ground_marker_px	    ground_marker_py	    ground_marker_pz	    ground_marker_px	    ground_marker_py	    ground_marker_pz	    ground_marker_px	    ground_marker_py	    ground_marker_pz	    ground_marker_px	    ground_marker_py	    ground_marker_pz	    ground_marker_px	    ground_marker_py	    ground_marker_pz	    ground_marker_px	    ground_marker_py	    ground_marker_pz	    ground_marker_px	    ground_marker_py	    ground_marker_pz	    ground_marker_px	    ground_marker_py	    ground_marker_pz	
          1.45000005	          1.50420797	          0.69179207	         -0.34345353	        -12.54276276	          2.26095152	         -4.05436039	          9.11342049	         -3.48864532	         -2.89687681	         -1.72417438	          4.15805817	          0.00000000	          0.00000000	          5.69954109	          0.76233643	        -14.34180164	          5.73169613	          0.59298640	          0.00000000	          0.00000000	         20.91031837	         -0.56578326	          1.25543737	          1.43165100	          0.63688016	         -0.34435302	          1.43896544	          0.64545888	         -0.29011649	          1.44843864	          0.64621389	         -0.40717638	          1.41908455	          0.34318334	         -0.27515838	          1.41182685	          0.34574008	         -0.40803659	          1.38941264	          0.05441236	         -0.24700977	          1.40279186	          0.05723114	         -0.42832255	          1.50420797	          0.69179207	         -0.34345353	          1.49717665	          0.69123167	         -0.25656849	          1.51123929	          0.69235247	         -0.43033853	          1.37457383	          0.74948883	         -0.30801120	          1.38064981	          0.75034696	         -0.39357364	          1.41324282	          0.34582168	         -0.22960719	          1.40373826	          0.34686109	         -0.45533687	          1.42128062	          0.34165165	         -0.32180372	          1.40832198	          0.34486264	         -0.36303115	          1.37961209	          0.05851628	         -0.21523938	          1.38930082	          0.05972520	         -0.45778471	          1.39491642	          0.05233164	         -0.27407476	          1.41291928	          0.05327291	         -0.39734584	          1.34810567	          0.03757261	         -0.26375082	          1.35264063	          0.03832697	         -0.41836306	          1.44791675	          1.02490795	         -0.33659914	          1.54018843	          0.91688275	         -0.33545235	          1.36783516	          1.04217994	         -0.34533343	          1.46429479	          1.01891410	         -0.29852626	          1.46970785	          1.01832044	         -0.38777000	          1.47623277	          0.04111702	         -0.22848190	          1.48865855	          0.03907296	         -0.45823437	          1.54464698	          0.42623764	         -0.28260568	          1.46439493	          0.41711143	         -0.51388878	          1.46689379	          0.48477694	         -0.24822815	          1.47288811	          0.47809780	         -0.43340895	          1.45250583	          0.39870074	         -0.24656749	          1.46287560	          0.39443424	         -0.41551811	          1.40285742	          0.14882627	         -0.15329204	          1.50129998	          0.16590938	         -0.40966183	          1.40219462	          0.20098589	         -0.22110246	          1.43568337	          0.22138470	         -0.42029083	
          1.45833337	          1.50405145	          0.69177252	         -0.34382647	        -12.52621651	          2.24896407	         -4.04997158	          9.11845779	         -3.48007202	         -2.94507742	         -1.73102474	          4.13394403	          0.00000000	          0.00000000	          5.65008926	          0.81403100	        -14.41681004	          5.84910107	          0.52700740	          0.00000000	          0.00000000	         20.81443024	         -0.53037447	          1.20774579	          1.43149996	          0.63684332	         -0.34468681	          1.43883085	          0.64542872	         -0.29047191	          1.44828558	          0.64616799	         -0.40753335	          1.41907334	          0.34319007	         -0.27550802	          1.41147947	          0.34570310	         -0.40808871	          1.38944066	          0.05441888	         -0.24712096	          1.40279627	          0.05720601	         -0.42832088	          1.50405145	          0.69177252	         -0.34382647	          1.49703574	          0.69122398	         -0.25696307	          1.51106715	          0.69232106	         -0.43068987	          1.37440526	          0.74943495	         -0.30837166	          1.38043904	          0.75029820	         -0.39391366	          1.41319883	          0.34582913	         -0.22996107	          1.40331733	          0.34679034	         -0.45537713	          1.42134690	          0.34159976	         -0.32242662	          1.40811872	          0.34485456	         -0.36313909	          1.37961876	          0.05854891	         -0.21536054	          1.38925791	          0.05967827	         -0.45776320	          1.39493918	          0.05226600	         -0.27415809	          1.41292143	          0.05321690	         -0.39735210	          1.34812105	          0.03753817	         -0.26385790	          1.35262692	          0.03827932	         -0.41834348	          1.44803381	          1.02485061	         -0.33689871	          1.54016292	          0.91670346	         -0.33577678	          1.36790979	          1.04225123	         -0.34572208	          1.46438110	          1.01880836	         -0.29879716	          1.46984661	          1.01827061	         -0.38808566	          1.47624731	          0.04110919	         -0.22851124	          1.48864770	          0.03906092	         -0.45826986	          1.54455245	          0.42618188	         -0.28293416	          1.46393776	          0.41703141	         -0.51411742	          1.46675384	          0.48464197	         -0.24849769	          1.47255003	          0.47802997	         -0.43378040	          1.45244825	          0.39848250	         -0.24703917	          1.46257532	          0.39436081	         -0.41577244	          1.40283036	          0.14888878	         -0.15347584	          1.50117362	          0.16601361	         -0.40972352	          1.40221238	          0.20095010	         -0.22130430	          1.43547404	          0.22136027	         -0.42035276	
          1.46666670	          1.50388050	          0.69178313	         -0.34419572	        -12.49325943	          2.22684455	         -4.04770231	          9.10422897	         -3.46097016	         -2.96596527	         -1.74039733	          4.11216879	          0.00000000	          0.00000000	          5.59178543	          0.84825569	        -14.48477364	          5.94551754	          0.47198439	          0.00000000	          0.00000000	         20.72992325	         -0.52075803	          1.21490431	          1.43137336	          0.63680542	         -0.34500930	          1.43869698	          0.64541960	         -0.29081279	          1.44812834	          0.64612508	         -0.40787637	          1.41905105	          0.34319210	         -0.27585143	          1.41117549	          0.34566951	         -0.40816796	          1.38944304	          0.05443419	         -0.24723102	          1.40279233	          0.05718452	         -0.42833143	          1.50388050	          0.69178313	         -0.34419572	          1.49688292	          0.69125968	         -0.25734013	          1.51087809	          0.69230658	         -0.43105128	          1.37422693	          0.74936473	         -0.30872566	          1.38022017	          0.75022995	         -0.39423883	          1.41316712	          0.34582928	         -0.23030558	          1.40294528	          0.34672761	         -0.45544526	          1.42129552	          0.34161180	         -0.32291099	          1.40811682	          0.34477037	         -0.36332944	          1.37961626	          0.05858926	         -0.21547541	          1.38921034	          0.05963577	         -0.45775539	          1.39494872	          0.05220609	         -0.27422500	          1.41290462	          0.05317031	         -0.39736530	          1.34815013	          0.03749427	         -0.26397559	          1.35261166	          0.03822692	         -0.41833702	          1.44815505	          1.02484322	         -0.33713880	          1.54018903	          0.91661501	         -0.33604196	          1.36803734	          1.04231644	         -0.34606189	          1.46450889	          1.01878941	         -0.29901761	          1.46994531	          1.01824033	         -0.38835800	          1.47625947	          0.04111148	         -0.22854111	          1.48863029	          0.03904797	         -0.45831069	          1.54442871	          0.42614707	         -0.28319189	          1.46349323	          0.41695374	         -0.51434606	          1.46668589	          0.48456165	         -0.24872632	          1.47220635	          0.47799072	         -0.43415350	          1.45235932	          0.39833477	         -0.24741462	          1.46238899	          0.39435285	         -0.41610613	          1.40287936	          0.14895819	         -0.15365759	          1.50105441	          0.16611905	         -0.40980271	          1.40223420	          0.20093162	         -0.22151372	          1.43528533	          0.22137341	         -0.42041722	
          1.47500002	          1.50369525	          0.69182754	         -0.34455818	        -12.44874573	          2.19555521	         -4.04734755	          9.07499504	         -3.43259621	         -2.96732616	         -1.75005949	          4.09192705	          0.00000000	          0.00000000	          5.53050232	          0.86534542	        -14.53345013	          6.01821709	          0.42907855	          0.00000000	          0.00000000	         20.66691208	         -0.57025230	          1.26510632	          1.43126297	          0.63677835	         -0.34532160	          1.43856013	          0.64543968	         -0.29113725	          1.44796383	          0.64609462	         -0.40820330	          1.41901004	          0.34320009	         -0.27618340	          1.41091716	          0.34564987	         -0.40827328	          1.38941967	          0.05446561	         -0.24734376	          1.40277719	          0.05717444	         -0.42834991	          1.50369525	          0.69182754	         -0.34455818	          1.49671781	          0.69134158	         -0.25769553	          1.51067269	          0.69231343	         -0.43142080	          1.37404287	          0.74929649	         -0.30907068	          1.37999701	          0.75015450	         -0.39455625	          1.41313350	          0.34583372	         -0.23063640	          1.40263426	          0.34668222	         -0.45554200	          1.42119563	          0.34165832	         -0.32326630	          1.40788710	          0.34477648	         -0.36357450	          1.37959957	          0.05864375	         -0.21558908	          1.38916171	          0.05960545	         -0.45776010	          1.39496899	          0.05218231	         -0.27428132	          1.41286111	          0.05315689	         -0.39737064	          1.34818947	          0.03744975	         -0.26410270	          1.35259831	          0.03817626	         -0.41834232	          1.44822800	          1.02487886	         -0.33735141	          1.54021978	          0.91661531	         -0.33619419	          1.36815476	          1.04236221	         -0.34641373	          1.46461785	          1.01887131	         -0.29925588	          1.46996462	          1.01819634	         -0.38856459	          1.47626781	          0.04112598	         -0.22857241	          1.48860776	          0.03903662	         -0.45835316	          1.54428530	          0.42614958	         -0.28338057	          1.46306396	          0.41687325	         -0.51457494	          1.46665740	          0.48452389	         -0.24893655	          1.47188938	          0.47797421	         -0.43448442	          1.45226467	          0.39827967	         -0.24770646	          1.46209526	          0.39436978	         -0.41642725	          1.40298283	          0.14904578	         -0.15384260	          1.50094259	          0.16622926	         -0.40989429	          1.40224159	          0.20096931	         -0.22171883	          1.43510318	          0.22144207	         -0.42048818	
